<?xml version="1.0" encoding="utf-8"?>
<!-- Generator: Adobe Illustrator 16.0.4, SVG Export Plug-In . SVG Version: 6.00 Build 0)  -->
<!DOCTYPE svg PUBLIC "-//W3C//DTD SVG 1.1//EN" "http://www.w3.org/Graphics/SVG/1.1/DTD/svg11.dtd">
<svg version="1.1" id="Layer_1" xmlns="http://www.w3.org/2000/svg" xmlns:xlink="http://www.w3.org/1999/xlink" x="0px" y="0px"
	 width="234px" height="234px" viewBox="0 0 234 234" enable-background="new 0 0 234 234" xml:space="preserve">
<desc  style="-webkit-tap-highlight-color: rgba(0, 0, 0, 0);">Created with Raphaël 2.0.1</desc>
<g>
	<path fill="#FFFFFF" stroke="#EAEAE4" d="M210.823,164.805l-52.541-26.771c4.819-9.458,6.244-20.284,4.037-30.667l57.68-12.26
		C225.015,118.705,221.775,143.31,210.823,164.805"/>
	<path fill="#1BB4C7" stroke="#EAEAE4" d="M210.823,164.805l-52.541-26.771c4.819-9.458,6.244-20.284,4.037-30.667l57.68-12.26
		C225.015,118.705,221.775,143.31,210.823,164.805"/>
</g>
<g>
	<path fill="#FFFFFF" stroke="#EAEAE4" d="M219.999,95.107l-57.68,12.26c-2.207-10.383-7.912-19.694-16.161-26.374l37.109-45.827
		C202.016,50.349,214.982,71.509,219.999,95.107"/>
	<path fill="#1BB4C7" stroke="#EAEAE4" d="M219.999,95.107l-57.68,12.26c-2.207-10.383-7.912-19.694-16.161-26.374l37.109-45.827
		C202.016,50.349,214.982,71.509,219.999,95.107"/>
</g>
<g>
	<path fill="#FFFFFF" stroke="#EAEAE4" d="M183.268,35.167l-37.109,45.827c-8.25-6.68-18.543-10.325-29.158-10.325V11.7
		C141.125,11.7,164.519,19.984,183.268,35.167"/>
	<path fill="#FA315D" stroke="#EAEAE4" d="M183.268,35.167l-37.109,45.827c-8.25-6.68-18.543-10.325-29.158-10.325V11.7
		C141.125,11.7,164.519,19.984,183.268,35.167"/>
</g>
<g>
	<path fill="#FFFFFF" stroke="#EAEAE4" d="M117,11.7v58.968c-10.615,0-20.908,3.645-29.158,10.325l-37.11-45.827
		C69.481,19.984,92.875,11.7,117,11.7"/>
	<path fill="#FA315D" stroke="#EAEAE4" d="M117,11.7v58.968c-10.615,0-20.908,3.645-29.158,10.325l-37.11-45.827
		C69.481,19.984,92.875,11.7,117,11.7"/>
</g>
<g>
	<path fill="#FFFFFF" stroke="#EAEAE4" d="M50.732,35.167l37.11,45.827c-8.25,6.68-13.955,15.991-16.162,26.374l-57.68-12.26
		C19.017,71.509,31.984,50.349,50.732,35.167"/>
	<path fill="#4D3361" stroke="#EAEAE4" d="M50.732,35.167l37.11,45.827c-8.25,6.68-13.955,15.991-16.162,26.374l-57.68-12.26
		C19.017,71.509,31.984,50.349,50.732,35.167"/>
</g>
<g>
	<path fill="#FFFFFF" stroke="#EAEAE4" d="M14.001,95.107l57.68,12.26c-2.207,10.383-0.782,21.209,4.037,30.667l-52.541,26.771
		C12.225,143.31,8.985,118.705,14.001,95.107"/>
	<path fill="#4D3361" stroke="#EAEAE4" d="M14.001,95.107l57.68,12.26c-2.207,10.383-0.782,21.209,4.037,30.667l-52.541,26.771
		C12.225,143.31,8.985,118.705,14.001,95.107"/>
</g>
</svg>
